<svg width="174" height="100" fill="none" xmlns="http://www.w3.org/2000/svg"><path d="M20.18 28.33H7.93L5.515 34H.825L11.85 9.5h4.48L27.39 34h-4.76l-2.45-5.67zm-1.505-3.57l-4.62-10.71L9.47 24.76h9.205zm22.016-9.66c2.356 0 4.246.688 5.67 2.065 1.423 1.377 2.135 3.418 2.135 6.125V34H44.12V23.85c0-1.633-.385-2.858-1.155-3.675-.77-.84-1.867-1.26-3.29-1.26-1.61 0-2.882.49-3.815 1.47-.933.957-1.4 2.345-1.4 4.165V34h-4.375V15.31h4.165v2.415c.723-.863 1.633-1.517 2.73-1.96 1.096-.443 2.333-.665 3.71-.665zm31.83-7.07V34h-4.2v-2.415a6.744 6.744 0 01-2.694 1.995c-1.05.443-2.217.665-3.5.665-1.797 0-3.419-.397-4.865-1.19a8.613 8.613 0 01-3.36-3.36c-.817-1.47-1.225-3.15-1.225-5.04 0-1.89.408-3.558 1.225-5.005a8.613 8.613 0 013.36-3.36c1.446-.793 3.068-1.19 4.865-1.19 1.236 0 2.368.21 3.395.63a6.83 6.83 0 012.625 1.89V8.03h4.375zm-9.87 22.47c1.05 0 1.996-.233 2.836-.7a5.31 5.31 0 001.995-2.065c.49-.887.735-1.913.735-3.08s-.245-2.193-.735-3.08-1.155-1.563-1.995-2.03c-.84-.49-1.785-.735-2.835-.735s-1.995.245-2.835.735c-.84.467-1.505 1.143-1.995 2.03-.49.887-.735 1.913-.735 3.08s.245 2.193.735 3.08a5.31 5.31 0 001.995 2.065c.84.467 1.785.7 2.835.7zM82.41 18.04c1.26-1.96 3.477-2.94 6.65-2.94v4.165a5.554 5.554 0 00-1.015-.105c-1.703 0-3.033.502-3.99 1.505-.957.98-1.435 2.403-1.435 4.27V34h-4.375V15.31h4.165v2.73zm27.76 6.72c0 .303-.023.735-.07 1.295H95.436c.256 1.377.921 2.473 1.994 3.29 1.097.793 2.45 1.19 4.06 1.19 2.054 0 3.745-.677 5.075-2.03l2.345 2.695c-.84 1.003-1.901 1.762-3.185 2.275-1.283.513-2.73.77-4.34.77-2.053 0-3.861-.408-5.425-1.225-1.563-.817-2.776-1.948-3.64-3.395-.84-1.47-1.26-3.127-1.26-4.97 0-1.82.409-3.453 1.225-4.9a8.901 8.901 0 013.466-3.43c1.47-.817 3.126-1.225 4.969-1.225 1.82 0 3.442.408 4.865 1.225a8.26 8.26 0 013.36 3.395c.817 1.447 1.225 3.127 1.225 5.04zm-9.45-6.16c-1.4 0-2.59.42-3.57 1.26-.956.817-1.54 1.913-1.75 3.29h10.605c-.186-1.353-.758-2.45-1.715-3.29-.956-.84-2.146-1.26-3.57-1.26zm13.653-3.29h4.375V34h-4.375V15.31zm2.205-3.08c-.793 0-1.458-.245-1.995-.735a2.512 2.512 0 01-.805-1.89c0-.747.268-1.365.805-1.855.537-.513 1.202-.77 1.995-.77.793 0 1.458.245 1.995.735.537.467.805 1.062.805 1.785 0 .77-.268 1.423-.805 1.96-.513.513-1.178.77-1.995.77zM21.65 64.26c1.353.443 2.427 1.19 3.22 2.24.793 1.027 1.19 2.31 1.19 3.85 0 2.123-.817 3.768-2.45 4.935C21.977 76.428 19.597 77 16.47 77H4.29V52.5h11.48c2.893 0 5.122.572 6.685 1.715 1.563 1.12 2.345 2.672 2.345 4.655 0 1.213-.28 2.287-.84 3.22a5.751 5.751 0 01-2.31 2.17zM8.84 56.07v6.755h6.44c1.587 0 2.8-.28 3.64-.84.863-.583 1.295-1.423 1.295-2.52 0-1.12-.432-1.96-1.295-2.52-.84-.583-2.053-.875-3.64-.875H8.84zm7.35 17.36c3.523 0 5.285-1.178 5.285-3.535s-1.762-3.535-5.285-3.535H8.84v7.07h7.35zm18.471-12.39c1.26-1.96 3.477-2.94 6.65-2.94v4.165a5.555 5.555 0 00-1.015-.105c-1.703 0-3.033.502-3.99 1.505-.957.98-1.435 2.403-1.435 4.27V77h-4.375V58.31h4.165v2.73zm10.361-2.73h4.375V77h-4.375V58.31zm2.205-3.08c-.793 0-1.458-.245-1.995-.735a2.514 2.514 0 01-.805-1.89c0-.747.269-1.365.805-1.855.537-.513 1.202-.77 1.995-.77.794 0 1.459.245 1.995.735.537.467.805 1.062.805 1.785 0 .77-.268 1.423-.805 1.96-.513.513-1.178.77-1.995.77zm18.518 2.87c2.356 0 4.246.688 5.67 2.065 1.423 1.377 2.134 3.418 2.134 6.125V77h-4.375V66.85c0-1.633-.385-2.858-1.155-3.675-.77-.84-1.866-1.26-3.29-1.26-1.61 0-2.881.49-3.815 1.47-.933.957-1.4 2.345-1.4 4.165V77H55.14V58.31h4.165v2.415a6.849 6.849 0 012.73-1.96c1.097-.443 2.334-.665 3.71-.665zm31.83-7.07V77h-4.2v-2.415a6.743 6.743 0 01-2.695 1.995c-1.05.443-2.216.665-3.5.665-1.796 0-3.418-.397-4.865-1.19-1.423-.793-2.543-1.913-3.36-3.36-.816-1.47-1.225-3.15-1.225-5.04 0-1.89.409-3.558 1.225-5.005.817-1.447 1.937-2.567 3.36-3.36 1.447-.793 3.069-1.19 4.865-1.19 1.237 0 2.369.21 3.395.63a6.828 6.828 0 012.625 1.89v-9.59h4.375zm-9.87 22.47c1.05 0 1.995-.233 2.835-.7a5.31 5.31 0 001.995-2.065c.49-.887.735-1.913.735-3.08s-.245-2.193-.735-3.08-1.155-1.563-1.995-2.03c-.84-.49-1.785-.735-2.835-.735s-1.995.245-2.835.735c-.84.467-1.505 1.143-1.995 2.03-.49.887-.735 1.913-.735 3.08s.245 2.193.735 3.08A5.31 5.31 0 0084.87 72.8c.84.467 1.785.7 2.835.7zm22.734-15.4c2.753 0 4.853.665 6.3 1.995 1.47 1.307 2.205 3.29 2.205 5.95V77h-4.13v-2.275c-.537.817-1.307 1.447-2.31 1.89-.98.42-2.17.63-3.57.63s-2.625-.233-3.675-.7c-1.05-.49-1.867-1.155-2.45-1.995-.56-.863-.84-1.832-.84-2.905 0-1.68.618-3.022 1.855-4.025 1.26-1.027 3.231-1.54 5.915-1.54h4.83v-.28c0-1.307-.397-2.31-1.19-3.01-.77-.7-1.925-1.05-3.465-1.05-1.05 0-2.089.163-3.115.49-1.004.327-1.855.782-2.555 1.365l-1.715-3.185c.98-.747 2.158-1.318 3.535-1.715a15.724 15.724 0 014.375-.595zm-.595 15.96c1.096 0 2.065-.245 2.905-.735a4.157 4.157 0 001.82-2.17v-2.17h-4.515c-2.52 0-3.78.828-3.78 2.485 0 .793.315 1.423.945 1.89.63.467 1.505.7 2.625.7zm20.489 3.185c-1.516 0-2.998-.198-4.445-.595-1.446-.397-2.601-.898-3.465-1.505l1.68-3.325c.84.56 1.844 1.015 3.01 1.365 1.19.327 2.357.49 3.5.49 2.614 0 3.92-.688 3.92-2.065 0-.653-.338-1.108-1.015-1.365-.653-.257-1.715-.502-3.185-.735-1.54-.233-2.8-.502-3.78-.805a5.993 5.993 0 01-2.52-1.575c-.7-.77-1.05-1.832-1.05-3.185 0-1.773.735-3.185 2.205-4.235 1.494-1.073 3.5-1.61 6.02-1.61 1.284 0 2.567.152 3.85.455 1.284.28 2.334.665 3.15 1.155l-1.68 3.325c-1.586-.933-3.371-1.4-5.355-1.4-1.283 0-2.263.198-2.94.595-.653.373-.98.875-.98 1.505 0 .7.35 1.202 1.05 1.505.724.28 1.832.548 3.325.805 1.494.233 2.719.502 3.675.805a5.62 5.62 0 012.45 1.54c.7.723 1.05 1.75 1.05 3.08 0 1.75-.758 3.15-2.275 4.2-1.516 1.05-3.581 1.575-6.195 1.575z" fill="#F3F3F4"/><rect x="1" y="92" width="67" height="8" rx="4" fill="#D64933"/></svg>